<svg height="466pt" viewBox="0 -46 466.00002 466" width="466pt" xmlns="http://www.w3.org/2000/svg"><path d="m200.859375 286.949219c-16.011719 13.65625-39.574219 13.667969-55.597656.023437l-145.261719-123v176.027344c-.0078125 5.503906 1.371094 10.925781 4.011719 15.757812l83.628906-85.535156c1.738281-1.828125 4.328125-2.578125 6.773437-1.964844 2.449219.617188 4.375 2.5 5.042969 4.933594.671875 2.429688-.019531 5.035156-1.808593 6.816406l-84.449219 86.375c5.707031 4.300782 12.65625 6.625 19.800781 6.617188h280c7.125.007812 14.058594-2.304688 19.757812-6.585938l-84.914062-86.394531c-2.65625-2.765625-2.59375-7.152343.140625-9.839843 2.734375-2.691407 7.125-2.675782 9.84375.027343l84.132813 85.601563c2.65625-4.84375 4.046874-10.28125 4.039062-15.808594v-100.1875c-22.957031-1.167969-45.148438-8.621094-64.152344-21.546875zm0 0"/><path d="m191.804688 276.269531 78.667968-66.714843c-3.425781-2.941407-6.691406-6.058594-9.792968-9.339844-20.757813-21.902344-32.996094-50.503906-34.507813-80.640625h-193.171875c-15.746094.019531-29.289062 11.144531-32.367188 26.585937l153.675782 130.125c10.808594 9.203125 26.699218 9.195313 37.496094-.015625zm0 0"/><path d="m353 0c-45.121094 0-85.917969 26.839844-103.777344 68.277344-17.855468 41.433594-9.351562 89.523437 21.632813 122.324218 4.414062 4.671876 9.210937 8.96875 14.34375 12.839844.332031.210938.644531.445313.933593.707032 19.359376 14.289062 42.808594 21.949218 66.867188 21.851562 62.40625 0 113-50.59375 113-113s-50.59375-113-113-113zm59.417969 87.128906-76.957031 62.609375c-2.949219 2.398438-7.269532 2.003907-9.738282-.886719l-33.046875-38.699218c-2.507812-2.9375-2.160156-7.359375.777344-9.867188 2.941406-2.511718 7.359375-2.164062 9.871094.777344l28.605469 33.5 71.652343-58.300781c3-2.441407 7.40625-1.988281 9.847657 1.011719 2.441406 3 1.988281 7.40625-1.011719 9.847656zm0 0"/></svg>