<?xml version="1.0" encoding="UTF-8" standalone="no"?>
<!-- Created with Inkscape (http://www.inkscape.org/) -->

<svg
   xmlns:dc="http://purl.org/dc/elements/1.1/"
   xmlns:cc="http://creativecommons.org/ns#"
   xmlns:rdf="http://www.w3.org/1999/02/22-rdf-syntax-ns#"
   xmlns:svg="http://www.w3.org/2000/svg"
   xmlns="http://www.w3.org/2000/svg"
   xmlns:sodipodi="http://sodipodi.sourceforge.net/DTD/sodipodi-0.dtd"
   xmlns:inkscape="http://www.inkscape.org/namespaces/inkscape"
   width="24"
   height="24"
   viewBox="0 0 6.3499999 6.3500002"
   version="1.1"
   id="svg8"
   inkscape:version="0.92.4 (5da689c313, 2019-01-14)"
   sodipodi:docname="3. Money.svg">
  <defs
     id="defs2">
    <pattern
       y="0"
       x="0"
       height="6"
       width="6"
       patternUnits="userSpaceOnUse"
       id="EMFhbasepattern" />
    <pattern
       y="0"
       x="0"
       height="6"
       width="6"
       patternUnits="userSpaceOnUse"
       id="EMFhbasepattern-3" />
  </defs>
  <sodipodi:namedview
     id="base"
     pagecolor="#ffffff"
     bordercolor="#666666"
     borderopacity="1.0"
     inkscape:pageopacity="0.0"
     inkscape:pageshadow="2"
     inkscape:zoom="7.9999995"
     inkscape:cx="-4.2455253"
     inkscape:cy="11.770705"
     inkscape:document-units="px"
     inkscape:current-layer="layer1"
     showgrid="false"
     units="px"
     inkscape:window-width="1280"
     inkscape:window-height="658"
     inkscape:window-x="-8"
     inkscape:window-y="-8"
     inkscape:window-maximized="1"
     showguides="true"
     guidecolor="#af0000"
     guideopacity="0.49803922"
     guidehicolor="#ff4b4b"
     guidehiopacity="0.49803922">
    <inkscape:grid
       type="xygrid"
       id="grid815"
       empspacing="1"
       originx="0"
       originy="0"
       spacingx="0"
       spacingy="0"
       snapvisiblegridlinesonly="true"
       visible="true"
       enabled="true"
       dotted="false" />
  </sodipodi:namedview>
  <metadata
     id="metadata5">
    <rdf:RDF>
      <cc:Work
         rdf:about="">
        <dc:format>image/svg+xml</dc:format>
        <dc:type
           rdf:resource="http://purl.org/dc/dcmitype/StillImage" />
        <dc:title />
      </cc:Work>
    </rdf:RDF>
  </metadata>
  <g
     inkscape:label="Guides"
     inkscape:groupmode="layer"
     id="layer1"
     transform="translate(0,-290.64999)">
    <path
       style="color:#000000;font-style:normal;font-variant:normal;font-weight:normal;font-stretch:normal;font-size:medium;line-height:normal;font-family:sans-serif;font-variant-ligatures:normal;font-variant-position:normal;font-variant-caps:normal;font-variant-numeric:normal;font-variant-alternates:normal;font-feature-settings:normal;text-indent:0;text-align:start;text-decoration:none;text-decoration-line:none;text-decoration-style:solid;text-decoration-color:#000000;letter-spacing:normal;word-spacing:normal;text-transform:none;writing-mode:lr-tb;direction:ltr;text-orientation:mixed;dominant-baseline:auto;baseline-shift:baseline;text-anchor:start;white-space:normal;shape-padding:0;clip-rule:nonzero;display:inline;overflow:visible;visibility:visible;opacity:1;isolation:auto;mix-blend-mode:normal;color-interpolation:sRGB;color-interpolation-filters:linearRGB;solid-color:#000000;solid-opacity:1;vector-effect:none;fill:#f0fe67;fill-opacity:1;fill-rule:nonzero;stroke:none;stroke-width:0.26458332;stroke-linecap:round;stroke-linejoin:round;stroke-miterlimit:4;stroke-dasharray:none;stroke-dashoffset:0;stroke-opacity:1;color-rendering:auto;image-rendering:auto;shape-rendering:auto;text-rendering:auto;enable-background:accumulate"
       d="m 3.1757812,291.44531 c -1.3138446,0 -2.38085932,1.06506 -2.38085932,2.37891 0,1.31384 1.06701472,2.38086 2.38085932,2.38086 1.3138447,0 2.3789063,-1.06702 2.3789063,-2.38086 0,-1.31385 -1.0650616,-2.37891 -2.3789063,-2.37891 z"
       id="path1216"
       inkscape:connector-curvature="0"
       sodipodi:nodetypes="sssss" />
    <path
       style="color:#000000;font-style:normal;font-variant:normal;font-weight:normal;font-stretch:normal;font-size:medium;line-height:normal;font-family:sans-serif;font-variant-ligatures:normal;font-variant-position:normal;font-variant-caps:normal;font-variant-numeric:normal;font-variant-alternates:normal;font-feature-settings:normal;text-indent:0;text-align:start;text-decoration:none;text-decoration-line:none;text-decoration-style:solid;text-decoration-color:#000000;letter-spacing:normal;word-spacing:normal;text-transform:none;writing-mode:lr-tb;direction:ltr;text-orientation:mixed;dominant-baseline:auto;baseline-shift:baseline;text-anchor:start;white-space:normal;shape-padding:0;clip-rule:nonzero;display:inline;overflow:visible;visibility:visible;opacity:1;isolation:auto;mix-blend-mode:normal;color-interpolation:sRGB;color-interpolation-filters:linearRGB;solid-color:#000000;solid-opacity:1;vector-effect:none;fill:#eaca35;fill-opacity:1;fill-rule:nonzero;stroke:none;stroke-width:0.26458332;stroke-linecap:round;stroke-linejoin:round;stroke-miterlimit:4;stroke-dasharray:none;stroke-dashoffset:0;stroke-opacity:1;color-rendering:auto;image-rendering:auto;shape-rendering:auto;text-rendering:auto;enable-background:accumulate"
       d="m 3.1757812,292.03516 c -0.9832886,0 -1.7890624,0.80577 -1.7890624,1.78906 0,0.98329 0.8057729,1.78906 1.7890624,1.78906 0.9832896,0 1.7890626,-0.80577 1.7890626,-1.78906 0,-0.98329 -0.8057739,-1.78906 -1.7890626,-1.78906 z"
       id="path1214"
       inkscape:connector-curvature="0"
       sodipodi:nodetypes="sssss" />
    <path
       id="path1218"
       d="m 3.7429769,294.14447 c 0,0.142 -0.035498,0.26032 -0.1301614,0.35499 -0.094663,0.0946 -0.2129913,0.15382 -0.3668182,0.16565 v 0.50882 H 3.1158358 v -0.49699 c -0.1064955,0 -0.2011585,-0.0119 -0.2839884,-0.0355 -0.08283,-0.0237 -0.1656598,-0.0592 -0.2248241,-0.0946 v -0.27215 h 0.011832 c 0.011833,0.0119 0.047331,0.0355 0.08283,0.0592 0.035498,0.0237 0.070997,0.0473 0.1064957,0.0592 0.035498,0.0237 0.08283,0.0355 0.1419942,0.0473 0.047331,0.0237 0.1064956,0.0237 0.1656598,0.0237 v -0.59164 c -0.035498,-0.0119 -0.059165,-0.0237 -0.08283,-0.0237 -0.023666,-0.0119 -0.047331,-0.0119 -0.070997,-0.0237 -0.1301614,-0.0355 -0.2129912,-0.0946 -0.2721555,-0.16566 -0.047331,-0.0829 -0.08283,-0.17749 -0.08283,-0.28398 0,-0.142 0.047331,-0.26034 0.1419943,-0.35499 0.08283,-0.0946 0.2011584,-0.142 0.3668182,-0.16567 v -0.37864 h 0.1301614 v 0.37864 c 0.08283,0 0.153827,0.0119 0.236657,0.0355 0.08283,0.0236 0.153827,0.0473 0.2011585,0.071 v 0.27215 h -0.011833 c -0.059164,-0.0473 -0.1183285,-0.0829 -0.1774928,-0.11834 -0.059164,-0.0237 -0.1419942,-0.0473 -0.2484897,-0.0592 v 0.60348 c 0.023666,0 0.047331,0.0119 0.08283,0.0119 0.023666,0.0119 0.047331,0.0119 0.059164,0.0237 0.1183285,0.0237 0.2011584,0.0829 0.2721555,0.15383 0.059164,0.071 0.08283,0.16566 0.08283,0.29582 z m -0.6271411,-0.50881 v -0.57982 c -0.08283,0.0119 -0.153827,0.0355 -0.2011585,0.0829 -0.059164,0.0473 -0.08283,0.1065 -0.08283,0.20115 0,0.0829 0.011833,0.142 0.059164,0.18933 0.035498,0.0355 0.1183286,0.071 0.2248241,0.1065 z m 0.4141499,0.5443 c 0,-0.0946 -0.023666,-0.15382 -0.059164,-0.18932 -0.047331,-0.0473 -0.1183285,-0.071 -0.224824,-0.0946 v 0.56799 c 0.094663,-0.0119 0.1656597,-0.0355 0.2129912,-0.0829 0.047331,-0.0473 0.070997,-0.10649 0.070997,-0.20116 z"
       style="fill:#ea8035;fill-opacity:1;fill-rule:nonzero;stroke:none;stroke-width:0.26458332;stroke-miterlimit:4;stroke-dasharray:none"
       inkscape:connector-curvature="0" />
  </g>
</svg>
