<svg id="Capa_1" enable-background="new 0 0 512 512" height="512" viewBox="0 0 512 512" width="512" xmlns="http://www.w3.org/2000/svg"><g><path d="m421 91v60.06c10.05-1.44 20.26-1.39 30 0v-75.06c0-8.28-6.72-15-15-15h-75.06c1.436 10.049 1.391 20.265 0 30z"/><path d="m331.06 271c-1.44-10.05-1.39-20.26 0-30h-150.12c1.436 10.049 1.391 20.265 0 30z"/><path d="m505.51 423.65-64.34-44.35c-9.971-6.865-23.52.321-23.52 12.35v29.35h-56.71c1.436 10.05 1.391 20.264 0 30h56.71v29.35c0 12.128 13.647 19.165 23.52 12.35l64.34-44.35c8.636-5.955 8.654-18.732 0-24.7z"/><path d="m91 421v-60.06c-10.11 1.44-20.32 1.38-30 0v75.06c0 8.28 6.72 15 15 15h75.06c-1.436-10.05-1.391-20.264 0-30z"/><path d="m256 0c-40.542 0-73.769 31.911-75.889 71.935-.894-3.21-2.846-6.177-5.906-8.286l-64.347-44.347c-9.94-6.849-23.512.286-23.512 12.351v29.347h-40.346c-8.284 0-15 6.716-15 15s6.716 15 15 15h40.347v29.347c0 12.159 13.659 19.144 23.512 12.351l64.347-44.347c3.056-2.106 5.011-5.075 5.906-8.291 2.117 40.026 35.344 71.94 75.888 71.94 41.906 0 76-34.093 76-76s-34.094-76-76-76z"/><circle cx="256" cy="436" r="76"/><circle cx="436" cy="256" r="76"/><circle cx="76" cy="256" r="76"/></g></svg>