<svg id="Capa_1" enable-background="new 0 0 512 512" height="512" viewBox="0 0 512 512" width="512" xmlns="http://www.w3.org/2000/svg"><g><path d="m497 452h-482c-8.284 0-15 6.716-15 15v30c0 8.284 6.716 15 15 15h482c8.284 0 15-6.716 15-15v-30c0-8.284-6.716-15-15-15z"/><circle cx="171" cy="300" r="25"/><path d="m171 200c-55.228 0-100 44.771-100 100v122h200v-122c0-55.229-44.771-100-100-100zm55 100c0 30.327-24.673 55-55 55s-55-24.673-55-55 24.673-55 55-55 55 24.673 55 55z"/><path d="m422.775 349.983c8.614.406 15.725-6.458 15.725-14.983v-65h7.5c8.284 0 15-6.716 15-15v-30h-75v30c0 8.284 6.716 15 15 15h7.5v64.576c0 8.077 6.207 15.027 14.275 15.407z"/><path d="m491 142.5h-40c-8.284 0-15-6.716-15-15s6.716-15 15-15h40v-30h-40c-8.284 0-15-6.716-15-15s6.716-15 15-15h40v-17.5c0-19.299-15.701-35-35-35h-65c-19.299 0-35 15.701-35 35v160h135z"/><path d="m326 120v-90h-218.232l41.968 90z"/><path d="m30.571 148.395 35.166 75.413c18.104-24.942 44.838-43.233 75.786-50.435l-29.395-63.037c-12.653 23.583-37.546 39.662-66.13 39.662-5.288 0-10.446-.558-15.427-1.603z"/><ellipse cx="45.998" cy="74.998" rx="45" ry="45" transform="matrix(.811 -.585 .585 .811 -35.17 41.052)"/></g></svg>